<?xml version="1.0" standalone="no"?>
<!DOCTYPE svg PUBLIC "-//W3C//DTD SVG 20010904//EN"
 "http://www.w3.org/TR/2001/REC-SVG-20010904/DTD/svg10.dtd">
<svg version="1.0" xmlns="http://www.w3.org/2000/svg"
 width="960.000000pt" height="960.000000pt" viewBox="0 0 960.000000 960.000000"
 preserveAspectRatio="xMidYMid meet">
<metadata>
Created by potrace 1.14, written by Peter Selinger 2001-2017
</metadata>
<g transform="translate(0.000000,960.000000) scale(0.100000,-0.100000)"
fill="#000000" stroke="none">
<path d="M0 6840 c0 -2622 1 -2760 18 -2760 9 -1 28 -10 41 -20 l23 -20 -22
-18 c-19 -16 -21 -22 -11 -40 7 -13 20 -21 29 -20 14 3 18 -9 23 -67 13 -139
10 -342 -4 -354 -8 -6 -17 -8 -20 -5 -11 11 -19 -45 -13 -89 4 -28 1 -51 -9
-71 -17 -32 -20 -96 -5 -96 6 0 10 -18 10 -40 0 -22 -4 -40 -10 -40 -5 0 -10
18 -10 40 0 30 -4 40 -16 40 -15 0 -16 -8 -11 -60 4 -37 3 -60 -3 -60 -15 0
-12 -29 4 -45 10 -10 16 -11 24 -3 8 8 13 7 18 -5 9 -25 0 -52 -19 -51 -9 1
-17 -2 -17 -7 0 -5 7 -9 16 -9 9 0 14 -6 11 -12 -2 -7 -10 -12 -16 -10 -6 1
-16 -9 -21 -23 -6 -16 -10 -587 -10 -1510 l0 -1485 1960 0 1960 0 0 91 c0 50
5 99 10 110 6 11 11 96 12 202 1 100 5 190 10 200 6 12 21 17 48 17 49 0 61
16 17 23 -109 20 -135 25 -160 36 -40 16 -187 14 -223 -3 -29 -14 -271 -42
-281 -33 -17 18 8 545 27 557 5 3 14 39 20 80 14 101 39 198 61 239 10 19 21
55 25 80 4 25 11 49 16 52 6 4 14 26 18 50 17 89 62 163 120 195 19 10 37 22
40 25 3 3 22 12 43 20 20 7 37 18 37 25 0 6 13 14 28 17 16 3 39 15 53 26 l24
20 -67 1 c-56 0 -71 4 -96 25 -31 26 -34 61 -5 78 14 9 18 47 5 47 -15 0 -50
-45 -57 -73 -8 -30 -39 -57 -68 -57 -9 0 -44 -11 -76 -24 -32 -14 -89 -30
-127 -37 -38 -6 -81 -18 -96 -25 -14 -7 -59 -19 -100 -25 -40 -7 -80 -18 -89
-25 -29 -26 -62 -16 -91 27 -16 21 -28 48 -28 58 0 10 -6 24 -14 30 -8 7 -19
42 -26 79 -6 37 -19 83 -29 102 -10 19 -21 63 -25 98 l-7 63 33 14 c24 10 28
14 13 15 -60 2 -77 49 -91 255 -3 55 -10 107 -15 117 -5 9 -12 61 -15 116 -7
99 -7 100 19 117 14 9 31 14 37 10 6 -4 61 -13 122 -21 66 -8 115 -19 122 -27
6 -8 31 -19 56 -26 25 -7 60 -20 77 -28 18 -8 40 -12 49 -9 14 5 13 10 -9 30
-13 12 -28 33 -32 45 -4 12 -21 36 -39 54 -17 18 -51 69 -74 115 -24 45 -47
82 -53 82 -5 0 -9 6 -9 13 0 7 -11 28 -23 47 -13 19 -27 47 -30 61 -4 15 -20
40 -36 57 -15 17 -34 46 -41 64 -8 18 -22 44 -32 57 -10 13 -18 28 -18 33 0 5
-11 33 -24 61 -13 29 -27 68 -31 87 -4 19 -13 39 -20 45 -6 5 -17 38 -23 72
-7 34 -19 74 -27 90 -8 15 -15 38 -15 50 0 13 -7 41 -16 63 -9 22 -14 47 -10
55 7 19 37 19 62 0 10 -8 26 -15 35 -15 9 0 19 -7 23 -15 3 -8 11 -15 17 -15
7 0 20 -6 28 -14 9 -8 38 -21 65 -30 27 -10 54 -23 60 -30 6 -8 28 -16 49 -19
32 -5 37 -3 37 14 0 10 -6 19 -13 19 -17 0 -47 42 -87 121 -18 35 -36 65 -40
67 -8 3 -37 61 -93 182 -14 30 -28 77 -32 104 -4 27 -13 55 -20 62 -7 7 -16
39 -20 70 -4 31 -15 82 -25 113 -9 31 -20 91 -24 133 -3 42 -13 123 -21 180
-25 169 -30 390 -11 473 25 112 38 157 57 200 9 22 20 56 24 75 4 19 13 44 20
55 8 11 19 40 25 65 7 24 20 55 31 68 10 14 19 30 19 37 0 14 60 147 70 155 4
3 26 43 49 90 23 47 47 89 52 95 5 5 9 17 9 26 0 9 6 19 13 22 8 3 24 34 37
69 13 34 31 71 41 80 10 10 20 26 24 38 3 11 13 20 20 20 9 0 12 6 9 15 -3 8
4 26 15 41 12 15 21 33 21 40 0 8 7 14 16 14 14 0 16 -9 12 -57 -3 -35 0 -70
8 -88 7 -17 16 -83 20 -146 5 -81 11 -119 22 -132 9 -10 18 -43 20 -76 4 -54
2 -59 -23 -79 -15 -12 -34 -22 -42 -22 -26 0 -173 -118 -173 -139 0 -5 -9 -13
-20 -16 -11 -3 -20 -10 -20 -15 0 -5 -11 -20 -25 -34 -14 -14 -28 -39 -31 -56
-4 -16 -11 -30 -15 -30 -5 0 -14 -11 -19 -25 -5 -14 -14 -25 -19 -25 -5 0 -15
-17 -21 -37 -7 -21 -18 -43 -25 -48 -18 -15 -26 -46 -26 -107 -1 -40 6 -66 28
-108 28 -53 115 -150 134 -150 20 0 1 66 -24 82 -6 4 -10 39 -9 84 2 63 8 89
33 141 16 34 33 63 38 63 4 0 13 17 20 38 8 20 27 53 42 73 16 20 29 41 29 45
1 5 32 35 71 67 75 61 117 73 126 37 3 -11 9 -18 13 -15 5 3 11 -8 15 -25 8
-34 25 -41 25 -9 0 37 23 103 43 126 14 16 42 25 111 37 131 22 157 24 191 16
16 -4 63 -13 103 -20 40 -7 77 -19 83 -27 6 -7 19 -13 28 -13 10 0 26 -8 37
-18 10 -10 35 -24 54 -31 19 -8 40 -21 47 -28 6 -8 20 -13 30 -11 30 6 20 87
-15 115 -15 13 -30 23 -34 23 -5 0 -16 7 -25 16 -35 30 -91 62 -141 78 -29 10
-54 22 -57 27 -4 5 -14 9 -24 9 -10 0 -47 9 -81 20 -74 24 -168 26 -196 5 -10
-8 -36 -15 -58 -15 l-39 0 7 46 c3 26 6 57 6 70 0 15 6 24 15 24 8 0 15 6 15
14 0 28 30 37 131 40 129 5 210 -5 271 -33 26 -11 54 -21 62 -21 9 0 16 -4 16
-10 0 -5 13 -16 30 -25 21 -11 33 -27 42 -58 6 -23 18 -45 24 -50 7 -4 18 -24
24 -45 7 -20 20 -46 30 -57 9 -11 27 -48 40 -82 12 -35 26 -63 30 -63 5 0 14
-17 20 -37 7 -21 20 -46 29 -57 9 -10 26 -55 39 -100 12 -44 30 -106 39 -136
22 -74 25 -388 4 -438 -7 -18 -11 -35 -8 -38 9 -9 58 39 95 94 19 30 45 58 57
64 12 5 35 35 51 65 72 136 104 187 104 168 1 -6 9 11 19 37 10 26 26 54 35
63 9 9 19 28 22 43 4 15 12 34 20 42 7 8 16 27 19 43 9 33 25 46 25 18 0 -11
6 -24 13 -28 7 -4 19 -22 26 -39 7 -18 26 -37 46 -47 23 -11 35 -25 40 -47 4
-17 13 -34 21 -37 8 -3 14 -11 14 -19 0 -8 9 -22 21 -32 11 -9 32 -36 45 -59
14 -22 31 -44 39 -47 8 -3 15 -12 15 -19 0 -8 33 -38 72 -68 40 -30 81 -62 91
-72 27 -27 31 -15 13 37 -9 26 -16 53 -16 61 0 7 -5 15 -10 17 -6 2 -20 59
-31 128 -12 69 -25 148 -29 175 -14 81 -12 252 3 267 22 24 77 108 77 118 0 6
7 10 15 10 24 0 64 -30 59 -44 -3 -7 2 -19 11 -26 13 -11 15 -9 15 9 0 12 -7
33 -16 46 -10 15 -16 48 -16 91 -1 57 2 69 20 85 12 9 22 22 22 28 0 6 7 11
15 11 9 0 18 8 22 18 3 9 28 62 54 117 27 55 54 125 61 155 6 30 22 67 34 82
12 15 26 42 29 60 4 18 18 47 31 64 13 17 29 46 35 65 15 43 37 69 59 69 10 0
20 7 24 15 3 8 25 20 50 26 25 6 51 17 57 25 22 27 54 16 77 -25 12 -21 22
-46 22 -55 0 -9 7 -19 15 -22 8 -3 20 -25 26 -48 6 -22 22 -61 35 -85 13 -24
24 -48 24 -54 0 -5 16 -29 35 -53 47 -58 57 -86 39 -112 -14 -20 -11 -24 37
-62 35 -28 60 -58 76 -93 13 -28 28 -54 33 -57 5 -3 11 -17 12 -30 3 -22 -2
-25 -30 -28 -19 -2 -44 4 -58 13 -20 13 -54 15 -192 14 -120 -1 -171 -4 -182
-14 -8 -7 -46 -18 -83 -25 -37 -7 -74 -19 -82 -26 -7 -8 -18 -14 -24 -14 -6 0
-28 -8 -50 -17 -39 -17 -39 -17 -43 -85 -3 -39 -12 -78 -22 -94 -21 -31 -12
-47 10 -16 8 12 22 22 30 22 8 0 17 7 20 15 5 13 54 40 109 60 140 52 518 44
629 -12 60 -30 151 -88 159 -100 4 -7 14 -13 22 -13 7 0 22 -10 32 -22 10 -13
29 -29 43 -36 14 -7 46 -41 72 -75 l46 -62 11 -126 c11 -132 2 -236 -21 -250
-7 -4 -9 -11 -5 -15 4 -4 14 1 22 12 68 88 115 157 115 168 0 8 7 16 15 20 25
9 21 146 -5 176 -11 13 -20 31 -20 42 0 10 -3 18 -8 18 -4 0 -13 17 -19 38
-18 56 -77 140 -128 180 -25 19 -45 38 -45 43 0 4 -16 13 -35 19 -19 6 -40 20
-45 31 -6 10 -15 19 -21 19 -18 0 -89 63 -89 78 0 9 -7 23 -14 31 -8 9 -16 41
-18 71 -3 50 -1 54 22 61 14 4 18 8 10 8 -8 1 -28 15 -44 31 -27 27 -28 34
-27 109 1 50 -4 95 -14 123 -19 54 -32 218 -17 218 5 0 15 -12 21 -27 5 -16
17 -39 24 -53 8 -14 20 -36 26 -50 6 -14 15 -32 20 -40 26 -45 65 -129 75
-164 7 -23 25 -59 39 -80 15 -21 27 -47 27 -57 0 -11 5 -19 10 -19 6 0 10 -9
10 -21 0 -15 -4 -19 -16 -15 -11 4 -15 0 -12 -16 2 -17 12 -24 45 -31 42 -8
83 -47 83 -79 0 -7 7 -23 15 -35 9 -12 24 -49 34 -81 11 -32 28 -76 40 -98 12
-21 21 -46 21 -55 0 -9 9 -26 20 -39 11 -13 20 -29 20 -35 0 -7 7 -16 16 -19
9 -4 14 -9 11 -12 -8 -8 22 -91 39 -105 8 -6 14 -20 14 -30 0 -10 13 -47 28
-81 39 -85 56 -152 48 -185 -4 -15 -31 -64 -61 -108 -29 -44 -56 -91 -60 -105
-5 -14 -16 -31 -26 -38 -11 -7 -19 -19 -19 -26 0 -8 -7 -16 -15 -20 -8 -3 -15
-13 -15 -23 0 -9 -8 -26 -19 -37 -10 -12 -26 -46 -36 -76 -10 -30 -26 -66 -36
-79 -11 -13 -19 -29 -19 -35 0 -6 -11 -33 -24 -61 -14 -27 -37 -76 -51 -107
-15 -32 -31 -58 -35 -58 -4 0 -11 -21 -15 -47 -4 -26 -16 -60 -26 -75 -11 -15
-26 -56 -33 -90 -8 -35 -21 -77 -31 -95 -9 -18 -21 -61 -27 -95 -6 -35 -17
-70 -23 -78 -7 -8 -15 -46 -19 -85 -3 -38 -13 -104 -20 -145 -34 -176 -49
-474 -26 -510 16 -25 28 0 40 80 7 41 17 80 23 85 7 6 18 28 26 50 7 22 19 47
27 55 11 13 19 38 39 124 3 11 9 22 14 25 5 3 18 30 30 59 18 50 43 81 65 82
17 0 -2 -85 -37 -170 -18 -43 -36 -114 -37 -143 0 -15 -6 -40 -14 -55 -7 -15
-21 -97 -30 -182 -10 -85 -22 -163 -27 -173 -10 -19 -39 -229 -39 -289 0 -27
-6 -40 -20 -48 -26 -14 -25 -43 1 -80 16 -21 20 -36 14 -57 -11 -47 -23 -53
-96 -53 l-69 0 11 -24 c10 -21 15 -23 36 -15 41 15 90 11 98 -8 4 -10 9 -52
11 -92 3 -92 -5 -100 -96 -101 l-64 0 39 -20 c22 -11 52 -20 67 -20 42 0 68
-48 68 -125 0 -52 -3 -62 -21 -70 -30 -14 -28 -28 3 -43 20 -9 28 -22 33 -55
4 -23 11 -46 15 -52 15 -19 29 -109 19 -126 -5 -10 -26 -20 -48 -24 -22 -3
-47 -12 -57 -19 -15 -12 -9 -14 48 -20 51 -6 70 -13 86 -31 21 -24 52 -102 52
-131 0 -8 7 -17 15 -20 8 -4 15 -12 15 -20 0 -8 9 -19 20 -26 11 -7 20 -18 20
-25 0 -7 8 -21 19 -32 10 -10 20 -24 22 -30 3 -7 11 -9 20 -6 13 5 17 32 22
153 6 132 9 148 27 161 22 15 26 41 10 57 -7 7 -4 28 11 65 33 87 31 84 93 83
49 -1 56 1 56 18 0 19 -4 22 -52 32 -48 11 -37 31 55 111 9 8 17 12 17 8 0 -5
5 -1 10 7 12 19 13 100 1 100 -15 0 -19 38 -6 57 7 10 23 54 35 98 12 44 28
84 34 90 7 5 20 36 30 68 10 32 26 67 36 77 10 10 26 42 34 71 9 29 22 59 29
68 7 9 19 35 27 59 7 23 16 42 20 42 3 0 17 34 30 75 13 41 27 75 30 75 4 0
15 26 25 58 19 59 28 72 57 72 11 0 18 -12 23 -42 4 -24 11 -50 16 -59 15 -29
39 -317 39 -468 0 -150 -5 -191 -22 -191 -6 0 -23 -11 -40 -25 -16 -14 -35
-25 -41 -25 -7 0 -34 -20 -60 -45 -27 -24 -57 -47 -67 -50 -10 -3 -21 -12 -24
-20 -3 -8 -10 -15 -16 -15 -10 0 -98 -55 -110 -69 -3 -4 -26 -22 -52 -41 -46
-34 -61 -60 -35 -60 14 0 50 23 81 52 11 10 25 18 30 18 6 0 24 11 40 25 16
14 33 25 38 25 9 0 33 19 78 63 15 15 32 27 37 27 6 0 18 9 27 19 10 11 28 22
41 25 14 4 29 15 35 26 6 12 21 20 35 20 23 0 25 -3 25 -52 -1 -94 -53 -380
-76 -415 -8 -12 -14 -29 -14 -38 0 -8 -6 -15 -13 -15 -12 0 -37 -52 -37 -78 0
-7 11 -12 25 -12 14 0 25 4 25 9 0 5 18 16 40 25 23 9 43 23 46 31 4 8 11 15
18 15 10 0 46 28 96 74 8 8 27 20 43 27 15 7 27 18 27 25 0 7 8 19 18 26 10 7
39 40 66 73 27 33 54 64 62 68 8 4 14 15 14 24 0 9 18 34 40 54 22 21 40 42
40 48 0 5 8 16 18 23 17 13 49 79 82 173 10 28 28 68 39 90 12 21 21 46 21 55
0 9 6 24 13 34 27 36 77 -8 77 -67 0 -13 6 -31 14 -42 7 -11 17 -36 21 -55 4
-19 14 -44 21 -55 7 -11 13 -29 13 -40 0 -11 7 -87 15 -170 27 -268 19 -355
-32 -355 -10 0 -27 -7 -39 -15 -12 -9 -41 -22 -64 -30 -24 -9 -86 -42 -138
-74 -53 -32 -112 -64 -131 -71 -19 -7 -43 -20 -53 -28 -24 -21 -48 -35 -157
-88 -52 -25 -98 -52 -102 -58 -4 -7 -26 -19 -49 -26 -22 -8 -43 -20 -46 -27
-3 -7 -15 -13 -27 -13 -20 0 -92 -42 -128 -74 -10 -9 -30 -19 -45 -22 -16 -4
-34 -15 -40 -24 -7 -10 -24 -21 -38 -24 -13 -3 -40 -17 -60 -30 -20 -14 -49
-27 -65 -31 -17 -4 -30 -10 -30 -14 0 -4 -17 -13 -37 -20 -21 -8 -49 -22 -62
-32 -13 -11 -29 -19 -35 -19 -6 0 -27 -8 -46 -19 -19 -10 -52 -23 -72 -30 -20
-7 -42 -19 -48 -27 -7 -7 -19 -14 -27 -14 -8 0 -56 -20 -106 -44 -51 -24 -118
-50 -149 -57 -36 -7 -58 -17 -58 -26 0 -7 -6 -13 -12 -13 -7 0 -40 -14 -72
-30 -32 -17 -64 -30 -71 -30 -7 0 -18 -7 -25 -14 -6 -8 -36 -20 -66 -27 -30
-7 -59 -18 -65 -26 -18 -21 -60 -16 -66 7 -6 21 -34 25 -81 12 -25 -8 -31 -27
-7 -27 8 0 19 -5 24 -10 14 -14 15 -201 6 -582 l-8 -313 1757 0 c1559 0 1757
2 1762 15 4 8 1 22 -6 30 -6 8 -9 19 -5 25 4 6 2 16 -3 23 -5 7 -12 32 -15 57
-9 68 -33 182 -46 213 -6 16 -11 41 -11 57 0 16 -5 41 -12 57 -6 15 -10 35 -9
44 1 8 -5 29 -14 45 -8 16 -15 38 -15 50 0 11 -7 35 -16 52 -8 17 -18 48 -21
69 -3 21 -11 45 -18 53 -12 14 -27 71 -40 154 -3 21 -15 57 -25 80 -10 22 -31
73 -46 111 -15 39 -33 77 -39 85 -7 8 -18 31 -25 50 -7 19 -19 42 -27 51 -7 8
-13 19 -13 23 0 4 -16 27 -35 50 -19 24 -35 46 -35 50 0 4 -49 56 -108 114
-60 59 -111 115 -115 125 -3 9 -18 22 -32 27 -14 5 -28 17 -31 25 -4 8 -10 15
-15 15 -9 0 -100 67 -109 80 -3 4 -15 10 -27 14 -11 4 -28 18 -37 31 -9 14
-25 25 -36 25 -10 0 -23 6 -27 13 -9 16 -83 30 -83 17 0 -6 16 -16 35 -24 52
-22 48 -54 -15 -116 -27 -27 -50 -54 -50 -59 0 -5 -10 -17 -21 -25 -19 -13
-34 -33 -55 -74 -3 -7 -19 -26 -34 -42 -15 -16 -38 -49 -50 -72 -12 -24 -37
-60 -56 -81 -19 -20 -34 -44 -34 -52 0 -9 -6 -18 -14 -21 -7 -3 -22 -24 -32
-47 -26 -60 -56 -100 -65 -86 -4 6 -1 23 7 38 26 52 52 117 64 163 7 26 19 53
26 59 8 6 14 22 14 34 0 12 11 38 25 58 13 20 29 54 35 76 6 22 14 41 18 43 4
2 16 21 27 43 11 22 40 75 64 117 35 64 47 78 68 78 17 0 22 4 16 12 -4 7 -11
76 -15 153 -11 226 -52 542 -72 560 -7 6 -18 36 -26 68 -8 36 -21 62 -32 68
-13 7 -18 21 -18 49 0 49 22 54 45 10 9 -17 20 -28 25 -25 6 4 10 0 10 -7 0
-19 101 -125 128 -133 12 -3 22 -12 22 -19 0 -7 11 -19 25 -26 14 -7 25 -19
25 -27 0 -7 5 -13 10 -13 6 0 31 -20 58 -45 66 -64 187 -155 206 -155 8 0 20
-9 26 -20 6 -11 19 -20 30 -20 11 0 24 -8 29 -19 12 -22 71 -34 78 -16 4 13
-27 64 -65 105 -12 13 -22 29 -22 35 0 7 -9 20 -20 30 -10 9 -22 37 -26 62 -4
25 -19 71 -35 102 -16 31 -29 64 -29 74 0 10 -6 28 -12 40 -7 12 -20 54 -29
92 -9 39 -27 102 -39 140 -12 39 -29 108 -38 155 -9 47 -22 89 -29 93 -7 4
-13 23 -13 42 0 46 -17 160 -41 270 -47 221 -41 286 17 193 27 -43 91 -107
108 -108 8 0 18 -7 126 -96 30 -24 72 -49 95 -54 22 -6 47 -15 55 -20 8 -6 26
-15 40 -21 14 -6 32 -15 40 -20 43 -26 84 -39 125 -39 26 0 56 -5 68 -12 51
-29 147 -50 147 -34 0 19 -22 56 -34 56 -12 0 -68 46 -143 117 -13 13 -28 23
-32 23 -5 0 -16 11 -24 23 -9 13 -28 37 -44 53 -16 16 -37 49 -48 74 -22 49
-20 46 -70 108 -19 24 -35 50 -35 58 0 8 -7 17 -15 20 -8 4 -15 12 -15 20 0 7
-6 17 -13 21 -7 4 -19 24 -27 43 -7 19 -20 42 -27 52 -8 9 -21 42 -30 75 -8
32 -19 63 -25 70 -5 6 -18 50 -30 97 -11 47 -23 86 -28 86 -11 0 -19 36 -10
49 9 15 40 3 40 -15 0 -8 5 -14 12 -14 7 0 23 -10 37 -23 15 -13 44 -29 67
-35 22 -7 51 -21 64 -32 13 -11 29 -20 36 -20 7 0 17 -6 21 -13 4 -7 24 -19
43 -27 19 -7 44 -21 55 -30 17 -14 123 -40 164 -40 6 0 11 11 11 25 0 19 -6
26 -27 31 -16 3 -39 11 -53 17 -38 17 -138 100 -145 119 -3 9 -15 20 -26 23
-10 4 -19 10 -19 15 0 12 -47 56 -90 85 -54 36 -92 76 -129 138 -18 32 -39 57
-46 57 -7 0 -16 11 -19 24 -3 13 -24 43 -45 65 -22 23 -43 56 -46 73 -4 18
-12 39 -18 47 -12 14 -20 76 -36 296 -6 77 -13 158 -16 180 -16 126 -26 239
-35 390 -5 94 -16 224 -24 290 -8 66 -20 185 -27 265 -8 101 -16 147 -25 153
-10 5 -14 28 -14 70 0 37 -6 71 -14 82 -7 11 -17 58 -21 105 -3 46 -13 103
-20 125 -13 39 -21 81 -45 255 -7 47 -19 95 -26 107 -8 12 -14 42 -14 65 0 24
-9 68 -21 98 -12 30 -26 78 -31 105 -6 28 -16 55 -24 61 -7 5 -16 22 -19 37
-4 15 -11 25 -15 22 -5 -3 -16 21 -25 52 -8 32 -22 69 -29 83 -7 14 -19 48
-25 75 -7 28 -23 66 -35 85 -13 19 -27 46 -31 60 -4 13 -14 30 -21 38 -8 7
-14 23 -14 35 0 20 -29 61 -101 146 -12 14 -32 48 -45 75 -37 77 -54 106 -63
106 -4 0 -18 20 -30 45 -12 25 -29 45 -37 45 -8 0 -14 5 -14 10 0 5 -8 19 -17
29 -51 54 -63 69 -63 76 0 12 -102 105 -132 121 -16 8 -28 18 -28 22 -1 4 -23
23 -50 42 -28 19 -50 40 -50 45 -1 11 -112 85 -128 85 -6 0 -19 8 -29 19 -10
10 -29 22 -42 26 -12 4 -39 18 -58 31 -20 13 -44 24 -55 24 -10 0 -21 6 -24
14 -3 8 -17 16 -32 19 -35 8 -81 66 -84 107 -1 17 -6 34 -10 36 -4 3 -8 13 -8
23 0 28 -46 43 -105 36 -46 -6 -58 -3 -111 26 -32 18 -66 38 -74 44 -8 7 -44
18 -79 24 -35 7 -74 19 -85 26 -12 8 -43 16 -70 20 -26 3 -60 14 -75 24 -14
10 -34 21 -43 24 -10 4 -18 13 -18 21 0 13 -20 26 -40 26 -4 0 -11 -7 -14 -16
-4 -10 7 -27 29 -48 23 -22 35 -43 35 -60 0 -14 4 -26 10 -26 6 0 8 -27 4 -72
-8 -99 -5 -181 7 -192 5 -6 9 -20 9 -33 0 -14 6 -23 15 -23 8 0 15 -4 15 -9 0
-5 12 -24 27 -42 56 -66 82 -165 53 -204 -4 -5 -11 -26 -15 -45 -4 -19 -18
-52 -31 -72 -13 -21 -24 -42 -24 -48 0 -5 -15 -10 -32 -10 -23 0 -42 10 -62
30 l-29 30 13 104 c14 118 9 183 -20 238 -11 21 -20 45 -20 53 0 8 -6 15 -14
15 -14 0 -19 24 -32 164 -6 54 -11 70 -25 73 -9 3 -20 16 -23 29 -4 13 -11 24
-17 24 -6 0 -36 20 -67 45 -55 42 -60 44 -132 47 -41 2 -130 -1 -197 -5 l-122
-9 -3 28 c-5 40 -24 40 -60 0 -17 -20 -37 -36 -44 -36 -6 0 -14 -7 -18 -15 -3
-8 -14 -15 -24 -15 -10 0 -29 -11 -42 -25 -13 -14 -33 -25 -44 -25 -12 0 -35
-9 -52 -19 -17 -10 -64 -24 -105 -32 -41 -7 -80 -19 -87 -26 -7 -7 -22 -13
-33 -13 -11 0 -46 -11 -79 -25 -33 -14 -70 -25 -83 -25 -23 0 -105 -52 -120
-77 -4 -7 -14 -13 -21 -13 -8 0 -20 -10 -29 -22 -8 -13 -46 -54 -84 -93 -38
-38 -78 -82 -89 -96 -11 -14 -29 -31 -42 -38 -12 -6 -22 -18 -22 -26 0 -8 -7
-15 -15 -15 -8 0 -19 -9 -25 -19 -5 -11 -20 -23 -32 -26 -13 -4 -32 -15 -43
-26 -65 -60 -89 -79 -97 -79 -5 0 -24 -11 -42 -25 -18 -14 -40 -25 -49 -25
-10 0 -17 -4 -17 -10 0 -5 -16 -17 -36 -25 -20 -8 -47 -25 -60 -38 -12 -12
-37 -36 -56 -53 -18 -17 -46 -59 -63 -92 -16 -34 -36 -61 -42 -62 -7 0 -13
-10 -13 -22 -1 -13 -9 -37 -18 -54 -9 -17 -27 -50 -40 -73 -12 -22 -29 -41
-37 -41 -7 0 -20 -8 -27 -17 -16 -21 -129 -83 -152 -83 -9 0 -16 -6 -16 -12
-1 -17 -46 -68 -60 -68 -5 0 -10 8 -11 18 -3 45 6 70 37 104 19 21 34 42 34
47 0 5 9 13 20 16 11 3 20 12 20 20 0 7 17 28 38 46 20 18 43 46 49 61 7 16
17 27 22 24 4 -3 14 21 20 54 7 33 20 77 31 97 10 21 24 52 31 70 8 17 30 42
51 55 21 13 38 26 38 31 0 4 6 7 13 7 6 0 30 14 51 30 22 17 46 30 53 30 7 0
13 4 13 10 0 5 18 19 40 30 22 11 40 24 40 29 0 5 13 12 29 16 32 7 141 106
141 128 0 7 28 43 63 80 34 37 78 85 97 108 60 72 143 150 175 165 16 8 46 23
65 34 19 10 44 19 55 20 11 0 34 9 52 19 17 11 59 25 92 32 68 13 85 35 21 26
-28 -4 -45 -1 -55 10 -23 22 -19 30 25 49 22 10 40 22 40 26 0 4 18 15 39 24
22 8 42 22 45 30 3 8 12 14 19 14 8 0 25 8 38 19 45 35 181 47 286 25 37 -7
31 -52 -9 -69 -24 -11 -28 -14 -13 -15 11 0 29 6 40 14 11 7 40 17 65 21 25 4
62 16 84 26 26 14 61 20 108 21 60 1 73 -1 87 -19 23 -30 129 -36 218 -14 84
21 69 30 -77 42 -82 6 -108 12 -118 26 -11 15 -28 18 -102 17 -66 0 -94 -4
-107 -16 -31 -28 -74 -30 -118 -8 -33 18 -59 21 -151 22 -80 0 -119 -4 -140
-15 -16 -8 -46 -18 -67 -22 -22 -4 -39 -14 -42 -25 -3 -10 -16 -21 -30 -24
-13 -3 -30 -12 -37 -19 -25 -22 -57 -37 -83 -37 -15 0 -25 -6 -25 -14 0 -8 -9
-18 -20 -21 -11 -4 -27 -17 -36 -30 -12 -19 -27 -24 -90 -30 -42 -4 -95 -15
-118 -26 -22 -10 -52 -19 -66 -19 -14 0 -36 -8 -50 -17 -30 -21 -141 -46 -199
-44 -24 1 -50 -4 -59 -11 -8 -7 -37 -14 -65 -15 -34 -1 -56 -8 -71 -22 -12
-12 -26 -21 -31 -21 -5 0 -20 -10 -33 -22 -64 -62 -82 -84 -82 -100 0 -23 -35
-58 -80 -81 -19 -10 -48 -25 -65 -33 -16 -8 -37 -19 -45 -24 -8 -6 -32 -18
-52 -27 -21 -10 -38 -23 -38 -30 0 -6 -8 -14 -19 -18 -10 -3 -32 -18 -48 -33
-17 -15 -45 -38 -64 -52 -18 -14 -40 -33 -48 -42 -9 -10 -20 -18 -26 -18 -6 0
-34 -25 -62 -55 -29 -30 -56 -55 -62 -55 -5 0 -12 -9 -16 -19 -3 -11 -15 -23
-26 -26 -10 -4 -19 -12 -19 -19 0 -16 -52 -66 -68 -66 -7 0 -17 -11 -22 -25
-5 -14 -14 -25 -20 -25 -14 0 -120 -105 -120 -118 0 -5 -6 -15 -14 -21 -11 -9
-16 -5 -25 20 -7 20 -7 37 -1 48 9 14 9 14 10 -1 0 -26 19 -22 32 7 6 14 14
25 18 25 4 0 7 14 8 30 0 21 -4 30 -15 30 -14 0 -13 3 3 21 20 23 23 63 31
404 4 183 6 215 16 215 4 0 7 61 7 136 0 112 3 139 15 148 14 10 15 30 9 144
l-7 132 -224 0 -224 0 5 -87 c3 -49 9 -445 12 -881 l6 -792 -26 -31 c-14 -17
-26 -35 -26 -40 0 -5 -7 -9 -15 -9 -8 0 -15 -6 -16 -12 0 -7 -20 -40 -45 -73
-24 -33 -49 -70 -56 -82 -6 -13 -17 -23 -25 -23 -7 0 -17 -8 -20 -17 -6 -16
-25 -43 -63 -90 -5 -7 -17 -28 -26 -47 -10 -19 -25 -37 -35 -39 -11 -3 -19
-14 -19 -25 0 -10 -9 -27 -19 -36 -11 -10 -36 -44 -56 -76 -20 -32 -43 -61
-51 -64 -8 -3 -14 -14 -14 -25 0 -11 -13 -33 -30 -49 -16 -17 -30 -38 -30 -47
0 -8 -6 -18 -13 -21 -8 -3 -20 -20 -27 -39 -8 -19 -18 -35 -22 -35 -5 0 -17
-19 -27 -43 -10 -23 -26 -48 -35 -56 -9 -7 -16 -17 -16 -22 0 -4 -11 -25 -25
-45 -14 -20 -25 -45 -25 -55 0 -11 -7 -19 -15 -19 -8 0 -19 -16 -25 -40 -6
-22 -19 -48 -29 -57 -10 -10 -22 -32 -25 -50 -4 -17 -14 -37 -21 -43 -8 -6
-19 -28 -26 -48 -7 -20 -15 -39 -19 -42 -4 -3 -15 -20 -24 -38 -9 -18 -24 -36
-32 -39 -7 -3 -14 -11 -14 -19 0 -7 -13 -40 -30 -72 -17 -33 -30 -67 -30 -76
0 -9 -6 -16 -13 -16 -8 0 -19 -22 -27 -50 -8 -28 -20 -56 -27 -62 -7 -6 -13
-16 -13 -22 0 -7 -9 -29 -20 -51 -11 -21 -27 -63 -36 -94 -9 -31 -19 -58 -22
-61 -4 -3 -22 -52 -41 -110 -19 -58 -40 -115 -48 -127 -7 -12 -20 -48 -28 -79
-8 -31 -19 -62 -25 -69 -5 -6 -16 -47 -25 -90 -8 -42 -19 -83 -25 -89 -5 -7
-15 -48 -21 -92 -6 -43 -14 -88 -19 -99 -20 -47 -31 -132 -42 -330 -14 -251
-14 -414 -2 -512 11 -82 18 -95 39 -67 10 14 14 48 15 128 0 136 17 333 32
366 15 34 38 157 38 201 0 22 6 39 14 42 8 3 16 30 21 74 4 37 15 87 25 109
10 23 21 60 25 83 4 22 10 41 14 41 9 0 41 93 41 119 0 12 6 24 14 27 8 3 17
17 21 32 4 15 17 51 31 80 13 29 24 55 24 59 0 4 6 14 13 22 8 9 20 32 27 51
7 19 18 40 24 45 14 12 76 138 76 153 0 6 8 19 18 29 10 10 25 34 32 53 8 19
22 42 32 52 10 10 18 25 18 33 0 8 5 15 10 15 6 0 10 7 10 15 0 8 4 15 9 15 5
0 14 12 20 28 22 52 51 102 71 122 11 11 20 27 20 35 0 13 28 35 45 35 12 0
-7 -95 -27 -133 -10 -21 -22 -61 -25 -88 -3 -27 -14 -58 -23 -69 -10 -11 -20
-45 -23 -78 -4 -32 -15 -78 -26 -103 -12 -24 -21 -53 -21 -64 0 -11 -7 -33
-15 -49 -9 -16 -20 -57 -25 -90 -17 -110 -23 -136 -31 -136 -4 0 -10 -26 -13
-57 -12 -113 -27 -229 -41 -303 -8 -41 -19 -163 -24 -270 -6 -107 -16 -260
-22 -340 -6 -84 -8 -185 -4 -240 4 -52 8 -111 8 -130 1 -51 -34 -233 -48 -250
-7 -8 -18 -38 -24 -67 -6 -28 -20 -67 -31 -85 -11 -18 -20 -39 -20 -47 0 -8
-6 -22 -14 -30 -7 -9 -21 -37 -31 -63 -10 -27 -21 -48 -26 -48 -4 0 -13 -24
-19 -54 -6 -30 -20 -66 -31 -79 -10 -14 -19 -30 -19 -35 0 -5 -6 -15 -14 -21
-8 -7 -22 -27 -31 -46 -9 -19 -20 -35 -25 -35 -5 0 -18 -20 -29 -45 -11 -25
-24 -45 -29 -45 -6 0 -15 -14 -21 -30 -5 -17 -14 -30 -19 -30 -5 0 -15 -14
-22 -30 -12 -30 -156 -180 -172 -180 -5 0 -18 -16 -29 -35 -12 -19 -25 -35
-30 -35 -13 0 -11 -27 2 -36 6 -3 21 -2 32 3 12 6 40 16 62 23 22 7 47 18 55
25 26 23 131 75 151 75 11 0 22 7 25 15 6 16 58 45 81 45 7 0 13 4 13 9 0 6
10 16 23 23 56 32 91 55 117 75 15 13 32 23 36 23 5 0 22 11 38 25 16 14 33
25 38 25 5 0 31 23 57 50 26 28 52 50 58 50 5 0 15 11 21 25 6 14 15 25 20 25
4 0 25 23 46 50 21 28 44 50 51 50 9 0 16 -22 20 -67 4 -38 15 -104 25 -148
10 -44 21 -100 25 -125 4 -25 14 -58 22 -73 8 -16 19 -56 24 -90 6 -34 16 -69
23 -77 7 -8 18 -40 26 -70 7 -30 21 -71 31 -90 11 -19 19 -42 19 -51 0 -9 6
-19 13 -22 7 -3 19 -24 27 -48 7 -24 19 -51 25 -59 6 -8 18 -32 28 -52 9 -21
21 -38 26 -38 5 0 13 -10 17 -22 3 -12 15 -31 25 -42 25 -26 37 -75 40 -156 1
-36 6 -81 10 -100 4 -19 4 -39 -1 -45 -7 -8 -57 -10 -163 -7 -151 4 -386 -11
-397 -27 -3 -4 -23 -14 -45 -23 -34 -14 -42 -23 -58 -69 -18 -50 -22 -93 -15
-144 3 -18 -6 -21 -86 -32 -49 -6 -99 -16 -110 -22 -12 -5 -46 -12 -76 -15
-82 -7 -194 -27 -206 -37 -6 -5 -48 -10 -95 -11 -75 -3 -84 -1 -81 15 2 12 -4
17 -20 18 -22 1 -20 2 21 15 10 3 11 7 1 19 -6 8 -9 23 -6 33 4 10 0 32 -9 48
-11 21 -15 62 -15 152 l0 122 -25 0 c-24 0 -25 3 -25 59 0 39 4 61 12 64 11 3
11 13 1 50 -7 26 -13 65 -13 86 0 43 -18 101 -31 101 -5 0 -9 36 -9 80 0 47
-4 80 -10 80 -5 0 -10 18 -10 40 0 22 -4 40 -10 40 -13 0 -13 77 0 85 5 3 10
22 10 41 0 19 5 34 10 34 6 0 10 38 10 93 0 57 4 97 12 105 8 8 8 15 -2 27
-10 12 -10 15 4 15 20 0 20 4 1 40 -8 16 -12 36 -8 45 4 11 -4 25 -23 42 -19
16 -25 26 -16 29 6 3 12 13 12 23 0 9 4 21 9 26 5 6 11 33 14 62 6 50 5 53
-37 95 l-43 43 0 118 c0 107 2 117 19 117 24 0 23 17 -2 32 -11 7 -20 21 -20
30 0 11 -8 18 -20 18 -17 0 -20 7 -21 43 -2 103 11 152 52 188 16 14 18 33 18
165 0 82 1 174 3 204 2 39 -2 65 -14 88 -15 27 -18 59 -18 187 l0 153 30 30
c30 31 39 57 19 64 -7 2 -7 17 -1 44 8 34 5 51 -13 93 -12 29 -30 62 -39 73
-11 13 -16 30 -13 47 3 14 1 34 -4 43 -6 12 -6 18 1 18 5 0 10 18 10 40 0 33
3 40 20 40 17 0 20 7 20 40 0 29 -4 40 -15 40 -11 0 -15 11 -15 42 0 23 -5 57
-12 75 -10 28 -10 36 1 42 10 6 11 26 6 85 -4 42 -11 76 -16 76 -5 0 -9 18 -9
40 0 31 7 45 34 73 l35 33 -6 163 c-5 143 -8 159 -19 135 l-12 -29 -1 33 c-1
22 4 32 14 32 18 0 29 41 21 75 -4 14 -2 25 4 25 14 0 12 37 -2 43 -10 4 -9 8
2 16 9 6 15 27 15 53 1 24 5 49 9 57 5 7 4 17 -2 23 -11 11 -4 88 9 102 13 14
11 84 -2 92 -6 3 -9 22 -7 40 2 19 1 34 -3 34 -4 0 -3 19 2 41 7 28 6 53 -1
75 -10 31 -9 38 20 77 32 45 34 57 44 307 5 141 5 140 26 140 17 0 20 7 20 40
0 33 -3 40 -20 40 -17 0 -20 7 -20 50 0 28 7 64 15 80 13 25 13 30 1 30 -21 0
-27 26 -20 96 5 44 11 64 20 64 10 0 14 13 14 40 0 22 -4 40 -10 40 -5 0 -10
18 -10 39 0 23 -5 41 -12 44 -17 5 8 37 28 37 15 0 16 5 14 100 -1 77 -7 100
-24 100 -22 0 -37 227 -16 240 4 3 10 80 12 173 3 92 8 170 11 174 4 3 7 -11
7 -33 0 -29 3 -35 10 -24 5 8 10 32 10 54 0 21 7 66 16 100 9 33 14 78 11 98
-3 20 -3 39 0 41 4 4 7 368 4 555 l-1 62 -385 0 -385 0 0 -2760z m5690 2507
c8 0 26 -9 40 -21 14 -12 37 -28 51 -35 47 -23 79 -57 79 -84 0 -14 -4 -28 -9
-31 -10 -7 -148 21 -173 34 -17 10 -134 37 -200 47 -21 3 -38 9 -38 14 0 4
-36 9 -80 11 -85 3 -106 18 -43 30 37 7 206 28 271 33 18 2 36 6 39 9 4 3 16
3 27 0 12 -4 28 -7 36 -7z m507 -86 c11 -11 39 -22 68 -26 57 -8 115 -26 115
-36 0 -3 13 -9 29 -12 19 -4 32 -14 36 -29 7 -23 49 -119 64 -148 6 -11 30
-16 92 -18 58 -2 87 -7 95 -17 5 -7 30 -21 55 -31 24 -9 51 -23 60 -31 8 -7
22 -13 31 -13 13 0 104 -62 118 -81 3 -3 22 -12 43 -20 20 -7 37 -17 37 -22 0
-4 16 -15 35 -23 19 -8 35 -18 35 -22 0 -5 11 -15 25 -22 14 -7 25 -19 25 -27
0 -7 5 -13 10 -13 6 0 22 -11 36 -25 14 -14 38 -32 53 -40 16 -8 31 -21 34
-30 4 -8 13 -15 22 -15 8 0 15 -7 15 -15 0 -9 10 -20 23 -26 12 -5 31 -28 41
-50 11 -22 28 -45 38 -50 10 -5 18 -16 18 -24 0 -8 18 -33 40 -56 21 -22 42
-49 45 -60 4 -10 10 -19 15 -19 4 0 15 -18 24 -40 9 -22 22 -40 30 -40 7 0 23
-22 34 -50 12 -27 26 -50 31 -50 6 0 11 -8 11 -19 0 -10 11 -35 25 -55 14 -20
25 -40 25 -43 0 -4 6 -14 13 -22 8 -9 20 -32 27 -51 7 -19 19 -42 26 -50 7 -8
16 -28 20 -45 4 -16 15 -45 25 -63 9 -18 23 -62 30 -97 9 -45 18 -66 30 -70
12 -4 19 -22 23 -63 8 -63 24 -112 37 -112 5 0 9 -10 9 -22 0 -13 9 -47 20
-76 11 -29 20 -76 20 -107 0 -40 4 -55 14 -55 16 0 42 -204 32 -246 -5 -19 -3
-24 14 -24 18 0 20 -6 20 -76 0 -47 4 -73 10 -69 6 4 10 -17 10 -56 0 -72 -18
-71 -27 1 -4 27 -9 37 -14 29 -6 -10 -10 -9 -15 5 -4 11 -2 21 7 27 16 10 8
12 -15 3 -9 -3 -16 -13 -16 -21 0 -8 -5 -11 -10 -8 -6 4 -10 12 -9 18 1 7 1
29 0 51 -1 31 -4 36 -14 27 -11 -8 -16 -5 -25 13 -6 13 -8 33 -5 45 4 16 1 21
-13 22 -11 0 -14 3 -6 6 6 2 12 16 12 29 0 14 -4 22 -10 19 -6 -4 -10 5 -10
19 0 14 -4 26 -10 26 -5 0 -10 6 -10 14 0 8 -6 16 -13 19 -8 3 -17 42 -25 103
-8 61 -20 111 -32 132 -20 33 -28 60 -10 32 5 -8 10 -10 10 -4 0 6 -6 17 -14
23 -7 6 -16 26 -20 43 -3 17 -12 39 -19 47 -7 9 -22 36 -32 61 -10 25 -25 52
-32 61 -7 8 -13 19 -13 23 0 4 -7 14 -15 22 -8 9 -15 25 -15 37 0 12 -9 36
-20 52 -11 17 -27 54 -36 84 -8 29 -23 65 -33 80 -29 41 -54 83 -79 129 -13
24 -30 51 -38 60 -49 57 -72 90 -77 112 -4 14 -20 41 -37 60 -16 19 -30 40
-30 45 0 6 -25 30 -55 55 -30 25 -55 49 -55 53 0 5 -19 28 -42 52 -24 24 -54
57 -67 74 -14 17 -33 33 -43 37 -10 3 -18 12 -18 20 0 8 -12 19 -26 25 -15 5
-36 18 -48 29 -42 39 -148 120 -157 120 -5 0 -9 5 -9 11 0 16 -39 47 -86 69
-23 11 -47 27 -54 35 -7 8 -18 15 -25 15 -8 0 -27 12 -44 26 -20 17 -46 27
-78 30 -27 3 -66 14 -89 24 -22 11 -47 20 -55 20 -19 0 -121 39 -133 51 -6 5
-25 9 -42 9 -18 0 -39 6 -46 13 -7 7 -25 20 -39 29 -34 22 -42 64 -33 184 l7
94 38 0 c25 0 45 -7 56 -19z m-1842 -43 c-59 -51 -155 -148 -155 -158 0 -6 -8
-14 -17 -17 -21 -8 -62 -54 -63 -69 0 -7 -11 -19 -24 -27 -12 -9 -31 -32 -40
-52 -10 -20 -25 -39 -34 -42 -9 -4 -29 -15 -44 -26 -15 -11 -49 -23 -77 -28
-28 -4 -75 -23 -108 -43 -32 -19 -90 -53 -129 -76 -39 -22 -76 -51 -83 -64
-13 -23 -83 -76 -102 -76 -12 0 -149 -136 -149 -149 0 -6 -7 -11 -15 -11 -8 0
-20 -9 -27 -20 -7 -11 -18 -20 -24 -20 -5 0 -20 -13 -32 -30 -13 -16 -28 -30
-35 -30 -19 0 -91 -75 -97 -101 -4 -15 -14 -25 -28 -27 -13 -2 -22 -10 -22
-22 0 -26 -38 -33 -46 -8 -7 23 -28 19 -32 -6 -2 -11 4 -19 17 -23 20 -5 20
-6 4 -34 -10 -16 -23 -27 -30 -25 -6 3 -22 -12 -34 -32 -12 -20 -32 -46 -43
-57 -12 -11 -26 -29 -32 -40 -29 -54 -44 -72 -106 -133 -38 -36 -68 -71 -68
-77 0 -6 -11 -18 -25 -25 -14 -8 -24 -19 -21 -26 3 -7 -2 -18 -10 -24 -8 -7
-14 -18 -14 -25 0 -7 -7 -15 -15 -19 -8 -3 -15 -12 -15 -21 0 -9 -9 -15 -25
-15 -30 0 -32 16 -4 39 21 16 21 17 -9 19 -25 2 -29 -1 -25 -17 3 -12 -2 -20
-16 -24 -30 -7 -26 -23 9 -39 33 -14 39 -33 13 -40 -10 -3 -24 -22 -32 -44
-13 -37 -27 -53 -43 -54 -13 0 -9 28 4 32 19 7 -2 28 -28 28 -16 0 -24 -6 -24
-17 0 -9 -10 -28 -22 -41 -13 -13 -23 -36 -23 -50 0 -17 -6 -28 -17 -30 -14
-3 -18 4 -19 30 -1 18 -7 -5 -14 -52 -9 -62 -14 -79 -20 -62 -11 33 -23 27
-35 -20 -6 -24 -13 -49 -15 -55 -2 -7 1 -12 8 -10 6 1 13 -9 15 -23 2 -22 1
-23 -10 -9 -21 25 -47 30 -56 11 -5 -9 -7 -22 -5 -29 3 -10 -11 -26 -27 -29
-21 -4 -40 -18 -40 -30 0 -8 -11 -19 -24 -24 -18 -6 -27 -20 -32 -45 -3 -20
-17 -48 -30 -62 -13 -14 -24 -34 -24 -43 0 -10 -12 -25 -26 -34 -14 -10 -23
-23 -21 -29 6 -15 -12 -49 -22 -43 -4 3 -13 -24 -20 -60 -10 -50 -17 -64 -29
-62 -11 2 -17 -5 -18 -17 -1 -12 -7 -31 -13 -44 -7 -12 -19 -45 -27 -72 -11
-36 -22 -52 -40 -59 -13 -5 -24 -16 -24 -24 0 -7 -11 -17 -25 -20 -14 -4 -25
-13 -25 -22 0 -9 -9 -18 -20 -21 -10 -3 -22 -14 -25 -24 -4 -10 -13 -19 -21
-19 -8 0 -14 -10 -14 -26 0 -31 -17 -65 -42 -82 -10 -7 -18 -20 -18 -29 0 -16
-29 -62 -64 -101 -11 -12 -21 -28 -22 -35 -6 -33 -26 -69 -37 -64 -7 3 -13 -6
-14 -24 -1 -16 -12 -39 -23 -51 -12 -13 -24 -35 -27 -50 -3 -16 -12 -28 -19
-28 -8 0 -14 -10 -14 -22 0 -13 -8 -38 -18 -55 -70 -131 -92 -177 -92 -193 0
-11 -8 -24 -19 -29 -10 -6 -22 -27 -26 -48 -4 -20 -15 -49 -26 -64 -10 -15
-19 -40 -19 -57 0 -16 -7 -35 -15 -42 -8 -7 -15 -18 -15 -26 0 -7 -5 -16 -11
-19 -17 -11 0 63 27 121 13 28 24 65 24 81 0 17 8 48 17 69 10 22 22 59 28 84
6 25 16 44 23 43 6 -2 14 9 17 25 4 15 10 35 16 44 5 10 9 26 9 37 0 10 7 24
15 31 9 7 13 20 10 28 -3 7 1 26 9 40 21 39 50 134 48 158 -1 14 5 24 17 27
11 2 22 17 25 35 4 16 20 51 37 76 16 26 29 53 29 61 0 8 5 15 11 15 5 0 8 4
5 9 -3 5 1 14 9 21 8 7 15 24 15 39 0 17 3 22 8 13 6 -9 14 0 28 30 10 24 26
51 35 61 9 10 24 35 34 55 10 20 22 45 26 54 5 10 9 28 9 40 0 12 3 18 6 15
10 -10 44 39 44 62 0 12 6 21 14 21 8 0 20 16 26 35 6 19 18 35 26 35 8 0 13
3 12 8 -5 12 25 92 34 92 4 0 15 18 24 40 9 22 20 40 25 40 5 0 9 6 9 13 0 7
8 22 18 33 24 28 52 82 52 102 0 12 3 13 12 4 17 -17 28 -15 21 4 -3 9 7 31
25 53 17 21 34 50 38 65 3 14 10 26 16 26 5 0 16 16 24 35 8 19 18 35 23 35 5
0 24 25 42 57 19 31 45 67 59 81 14 13 24 32 22 41 -2 14 -1 14 7 1 9 -13 12
-12 25 5 9 11 16 28 16 37 0 9 9 20 20 23 11 3 20 15 20 25 0 10 9 25 19 32
11 8 22 25 26 39 3 14 19 38 36 53 16 15 29 32 29 38 0 6 10 21 23 34 40 41
54 59 66 82 6 12 18 22 26 22 8 0 15 4 15 9 0 5 21 35 47 68 60 74 69 83 82
83 6 0 11 7 11 15 0 8 6 12 14 9 8 -3 17 -1 21 5 3 6 1 11 -4 11 -6 0 -11 7
-11 16 0 8 5 12 10 9 6 -3 10 -2 10 3 0 5 25 34 55 66 30 31 55 63 55 71 0 7
8 16 18 20 9 3 33 26 52 50 19 25 41 45 47 45 7 0 13 9 13 21 0 12 8 23 20 26
11 3 20 11 20 18 0 7 11 20 25 29 14 9 25 23 25 31 0 7 8 16 18 20 11 3 24 17
30 30 6 14 16 25 22 25 5 0 30 20 54 45 25 25 50 45 55 45 6 0 11 6 11 13 0
13 86 87 101 87 5 0 9 6 9 13 0 6 19 23 42 37 22 14 63 40 91 58 28 17 59 32
68 32 10 0 24 6 31 13 21 20 72 52 81 49 4 -1 7 4 7 12 0 19 32 26 128 26 82
0 128 12 117 31 -4 5 -35 9 -70 9 -65 0 -110 13 -119 35 -5 15 41 75 59 75 8
0 16 8 20 18 5 19 63 42 102 42 11 0 26 7 33 15 32 38 79 -2 82 -69 l1 -37 26
40 c29 45 67 66 137 77 27 4 52 12 56 18 8 12 72 33 106 35 l24 1 -27 -22z
m2253 -68 c30 -19 33 -24 30 -62 -6 -76 -73 -80 -107 -5 l-20 42 21 23 c26 27
34 27 76 2z m-1264 -70 c13 -13 -35 -79 -79 -109 -46 -31 -85 -23 -85 17 1 31
11 45 59 85 27 23 41 28 65 23 17 -4 35 -11 40 -16z m-2604 -834 c0 -3 -4 -8
-10 -11 -5 -3 -10 -1 -10 4 0 6 5 11 10 11 6 0 10 -2 10 -4z m-26 -22 c9 -22
8 -24 -9 -24 -8 0 -15 9 -15 20 0 24 15 27 24 4z m-41 -84 c-3 -11 -9 -23 -14
-26 -5 -3 -5 6 0 19 6 14 7 28 3 33 -4 4 -2 4 5 1 6 -4 9 -16 6 -27z m4749
-434 c-2 -5 0 -12 5 -15 5 -3 15 -26 22 -51 7 -25 20 -53 28 -62 8 -9 17 -36
20 -60 6 -58 22 -98 39 -98 8 0 14 -4 14 -10 0 -5 -7 -7 -15 -4 -17 7 -36 -32
-27 -55 3 -9 1 -12 -6 -7 -7 4 -12 13 -12 21 0 7 -7 15 -15 19 -8 3 -15 16
-15 28 1 22 1 22 15 4 13 -17 15 -17 21 -3 4 10 -5 28 -25 49 -16 18 -36 52
-43 75 -7 24 -16 43 -20 43 -4 0 -8 6 -8 14 0 7 -7 19 -15 26 -12 10 -13 16
-4 26 9 11 8 14 -5 14 -11 0 -16 9 -16 31 0 28 2 30 33 27 17 -2 30 -7 29 -12z
m214 -162 c8 -20 14 -52 12 -72 l-3 -37 -14 45 c-7 25 -17 53 -22 62 -12 23
-11 38 2 38 5 0 17 -16 25 -36z m44 -136 c0 -16 -3 -19 -11 -11 -6 6 -8 16 -5
22 11 17 16 13 16 -11z m-115 -38 c3 -5 -1 -10 -10 -10 -9 0 -13 5 -10 10 3 6
8 10 10 10 2 0 7 -4 10 -10z m145 -25 c0 -8 -2 -15 -4 -15 -2 0 -6 7 -10 15
-3 8 -1 15 4 15 6 0 10 -7 10 -15z m-132 -63 c2 -32 0 -42 -12 -42 -10 0 -14
12 -14 46 0 58 22 55 26 -4z m-5171 16 c-3 -8 -6 -5 -6 6 -1 11 2 17 5 13 3
-3 4 -12 1 -19z m5313 1 c0 -5 -4 -9 -10 -9 -5 0 -10 7 -10 16 0 8 5 12 10 9
6 -3 10 -10 10 -16z m-1930 -78 c0 -22 6 -44 15 -51 13 -11 13 -14 -2 -26 -10
-7 -31 -14 -47 -14 -26 0 -28 2 -21 28 4 15 10 43 12 62 9 63 43 63 43 1z
m-3489 -64 c-8 -8 -11 -7 -11 4 0 20 13 34 18 19 3 -7 -1 -17 -7 -23z m1549
-63 c0 -76 -2 -80 -45 -86 -25 -4 -33 36 -12 60 8 9 20 38 27 64 7 26 16 45
21 42 5 -3 9 -39 9 -80z m-88 -185 c2 -7 28 -19 58 -28 51 -16 55 -19 62 -56
12 -62 39 -158 50 -180 6 -10 17 -46 25 -80 8 -33 20 -70 28 -81 8 -12 17 -45
21 -74 l7 -51 -39 7 c-22 4 -63 18 -93 32 -45 20 -63 23 -105 17 -72 -9 -226
4 -233 21 -3 7 4 32 15 56 12 24 26 68 33 98 6 30 17 62 25 70 7 8 19 44 27
80 9 35 20 66 26 68 6 2 11 10 11 17 0 8 9 20 19 27 11 8 23 26 26 41 7 27 30
37 37 16z m-1694 -231 c-6 -18 -28 -21 -28 -4 0 9 7 16 16 16 9 0 14 -5 12
-12z m6002 -23 c0 -8 -4 -15 -10 -15 -5 0 -10 7 -10 15 0 8 5 15 10 15 6 0 10
-7 10 -15z m-31 -2 c0 -5 -4 -17 -9 -28 -8 -18 -9 -17 -9 8 -1 15 4 27 9 27 6
0 10 -3 9 -7z m31 -55 c0 -5 -4 -8 -10 -8 -5 0 -10 10 -10 23 0 18 2 19 10 7
5 -8 10 -18 10 -22z m-6062 -46 c-5 -23 -28 -27 -28 -4 0 10 7 19 15 19 9 0
15 -7 13 -15z m6109 -109 c-3 -10 -5 -4 -5 12 0 17 2 24 5 18 2 -7 2 -21 0
-30z m33 -57 c0 -18 -3 -54 -6 -80 l-7 -48 -13 39 c-8 21 -13 52 -12 68 1 26
2 25 8 -10 l8 -40 0 45 c0 67 1 72 12 65 6 -3 10 -21 10 -39z m-6390 -117 c-7
-11 -14 -18 -17 -15 -8 8 5 36 17 36 7 0 7 -6 0 -21z m6431 -360 l-10 -24 0
26 c-1 14 2 29 6 33 12 12 14 -9 4 -35z m-7767 -81 c-5 -44 -3 -62 6 -68 9 -6
10 -15 3 -36 l-10 -29 -12 41 c-10 38 -13 139 -4 157 3 4 9 5 14 1 6 -3 7 -30
3 -66z m6 -169 c0 -11 -4 -17 -10 -14 -5 3 -10 13 -10 21 0 8 5 14 10 14 6 0
10 -9 10 -21z m0 -303 c0 -2 -3 -11 -6 -20 -9 -23 -24 -20 -24 4 0 11 7 20 15
20 8 0 15 -2 15 -4z m-23 -218 c-2 -13 -4 -3 -4 22 0 25 2 35 4 23 2 -13 2
-33 0 -45z m689 14 c-12 -11 -18 7 -10 30 l8 23 4 -23 c2 -13 1 -26 -2 -30z
m-669 -54 c-3 -8 -6 -5 -6 6 -1 11 2 17 5 13 3 -3 4 -12 1 -19z m23 -608 c0
-5 -4 -10 -10 -10 -5 0 -10 5 -10 10 0 6 5 10 10 10 6 0 10 -4 10 -10z m-20
-250 c0 -64 -3 -80 -15 -80 -12 0 -15 16 -15 80 0 64 3 80 15 80 12 0 15 -16
15 -80z m-370 -106 c0 -64 -16 -73 -21 -11 -5 54 0 79 12 72 5 -4 9 -31 9 -61z
m357 -399 c-2 -190 -7 -349 -11 -352 -3 -4 -6 152 -6 345 0 249 3 352 11 352
8 0 10 -98 6 -345z m-330 -277 c-2 -13 -4 -3 -4 22 0 25 2 35 4 23 2 -13 2
-33 0 -45z m341 -270 c-6 -18 -28 -21 -28 -4 0 9 7 16 16 16 9 0 14 -5 12 -12z
m1904 -386 c10 -20 20 -49 24 -65 3 -15 12 -31 18 -35 7 -4 20 -28 30 -54 9
-25 24 -52 32 -58 7 -7 14 -18 14 -24 0 -7 11 -27 25 -46 14 -19 25 -42 25
-52 0 -10 9 -27 20 -38 11 -11 20 -23 20 -27 0 -5 14 -26 30 -47 17 -22 30
-45 30 -51 0 -7 9 -20 20 -30 11 -10 20 -24 20 -31 0 -8 9 -19 20 -26 11 -7
20 -17 20 -21 0 -16 115 -166 127 -166 6 -1 14 -9 17 -18 8 -24 61 -83 74 -83
11 0 22 -23 22 -46 0 -15 -31 -31 -87 -44 -28 -7 -39 -3 -69 21 -33 26 -44 29
-115 29 -42 0 -112 -5 -154 -11 -65 -9 -82 -8 -111 6 -19 9 -34 20 -34 24 0
10 -42 27 -90 36 -19 4 -56 17 -82 28 l-48 22 0 72 c0 89 11 93 75 27 45 -46
72 -53 68 -18 -1 10 -7 66 -13 124 -6 58 -18 127 -27 153 -11 36 -16 92 -17
213 -1 147 1 167 17 178 9 7 17 20 17 29 0 71 54 91 82 29z m-1612 -822 c0
-23 -10 -26 -28 -8 -18 18 -15 28 8 28 13 0 20 -7 20 -20z"/>
<path d="M3030 8200 c0 -5 5 -10 10 -10 6 0 10 5 10 10 0 6 -4 10 -10 10 -5 0
-10 -4 -10 -10z"/>
<path d="M2750 7830 c0 -5 5 -10 10 -10 6 0 10 5 10 10 0 6 -4 10 -10 10 -5 0
-10 -4 -10 -10z"/>
<path d="M2070 7029 c0 -5 5 -7 10 -4 6 3 10 8 10 11 0 2 -4 4 -10 4 -5 0 -10
-5 -10 -11z"/>
<path d="M1936 6838 c-9 -34 -8 -38 9 -38 8 0 15 3 15 8 0 4 3 17 6 30 5 16 2
22 -9 22 -8 0 -17 -10 -21 -22z"/>
<path d="M1886 6797 c4 -12 8 -39 9 -59 0 -21 5 -41 10 -45 4 -4 5 -2 0 6 -4
7 -3 16 4 21 7 4 13 24 14 45 2 31 -2 39 -21 46 -21 8 -23 7 -16 -14z"/>
<path d="M1832 6700 c0 -14 2 -19 5 -12 2 6 2 18 0 25 -3 6 -5 1 -5 -13z"/>
<path d="M1806 6594 c-4 -15 -2 -32 3 -37 8 -8 11 0 11 26 0 44 -5 47 -14 11z"/>
<path d="M1760 6479 c0 -5 5 -7 10 -4 6 3 10 8 10 11 0 2 -4 4 -10 4 -5 0 -10
-5 -10 -11z"/>
<path d="M1650 6421 c0 -19 18 -31 46 -31 8 0 14 10 14 25 0 32 -27 34 -33 3
l-4 -23 -2 23 c-1 27 -21 30 -21 3z"/>
<path d="M1630 6360 c0 -5 5 -10 10 -10 6 0 10 5 10 10 0 6 -4 10 -10 10 -5 0
-10 -4 -10 -10z"/>
<path d="M1565 6320 c3 -5 8 -10 11 -10 2 0 4 5 4 10 0 6 -5 10 -11 10 -5 0
-7 -4 -4 -10z"/>
<path d="M5795 9501 c-6 -11 26 -31 50 -31 8 0 18 -7 21 -15 4 -8 18 -15 33
-15 15 0 32 -5 38 -11 7 -7 13 -8 17 0 6 9 -52 41 -73 41 -4 0 -14 9 -24 20
-18 21 -52 27 -62 11z"/>
<path d="M5017 9413 c-15 -14 -6 -24 20 -21 34 4 43 28 11 28 -14 0 -28 -3
-31 -7z"/>
<path d="M4875 9360 c-4 -6 5 -10 20 -10 15 0 24 4 20 10 -3 6 -12 10 -20 10
-8 0 -17 -4 -20 -10z"/>
<path d="M5581 6511 c-12 -8 -13 -14 -3 -35 13 -30 17 -31 74 -12 37 12 99 23
148 26 11 0 10 3 -4 12 -26 14 -197 22 -215 9z"/>
<path d="M6440 6350 c0 -5 10 -10 23 -10 18 0 19 2 7 10 -19 13 -30 13 -30 0z"/>
<path d="M5965 5780 c-10 -11 -22 -20 -27 -20 -21 0 -67 -66 -68 -97 0 -17 -7
-39 -16 -48 -11 -10 -18 -41 -21 -93 -5 -66 -2 -83 16 -117 11 -22 21 -44 21
-50 0 -15 52 -61 78 -70 28 -8 115 -9 142 0 20 6 60 84 60 117 0 10 8 31 18
45 13 21 17 48 17 118 -1 88 -3 98 -47 192 -21 44 -140 60 -173 23z m22 -134
c-16 -12 -16 -14 -1 -20 8 -3 27 -6 40 -6 14 0 34 -5 45 -10 15 -8 19 -7 19 5
0 8 5 15 10 15 6 0 10 -7 10 -15 0 -8 4 -15 9 -15 17 0 19 -40 3 -85 -18 -49
-29 -56 -40 -25 -12 31 -78 67 -113 62 -37 -5 -62 -47 -38 -63 11 -8 11 -12 2
-16 -18 -7 -16 -20 7 -43 11 -11 20 -28 20 -39 0 -23 36 -34 60 -19 10 7 16
18 13 25 -3 8 3 13 16 13 12 0 21 6 21 14 0 9 9 14 20 13 11 -1 20 -7 20 -14
0 -7 -5 -12 -12 -10 -8 1 -11 -9 -10 -29 2 -23 -2 -34 -15 -39 -22 -10 -64 -6
-79 6 -7 5 -31 13 -55 17 -40 7 -44 10 -41 35 1 15 -4 39 -11 54 -20 39 -16
132 6 144 9 6 17 16 17 24 0 19 29 34 65 34 27 0 28 -1 12 -13z"/>
<path d="M3663 5693 c-13 -2 -23 -8 -23 -13 0 -5 -12 -15 -27 -22 -15 -7 -31
-27 -37 -46 -6 -18 -16 -36 -22 -40 -40 -26 -29 -320 12 -336 8 -3 14 -12 14
-19 0 -22 65 -67 97 -67 30 0 93 33 93 49 0 6 9 19 20 29 22 21 39 120 39 232
1 120 -17 157 -103 215 -20 14 -38 24 -39 24 -1 -1 -12 -4 -24 -6z m137 -245
c0 -54 -4 -98 -9 -98 -9 0 -26 -66 -22 -87 1 -7 -6 -13 -17 -13 -10 0 -23 -5
-29 -11 -6 -6 -34 -13 -62 -15 -49 -4 -51 -3 -64 29 -8 17 -17 57 -20 87 -4
30 -11 56 -17 58 -13 5 -13 92 0 92 5 0 16 16 24 34 l15 35 68 -6 c55 -4 71
-2 81 10 12 14 15 14 33 -1 16 -14 19 -30 19 -114z"/>
<path d="M3668 5513 c6 -2 18 -2 25 0 6 3 1 5 -13 5 -14 0 -19 -2 -12 -5z"/>
<path d="M3690 5477 c-44 -15 -61 -48 -58 -112 l3 -50 38 -3 c59 -5 83 16 90
80 11 95 -1 110 -73 85z"/>
<path d="M3561 5454 c0 -11 3 -14 6 -6 3 7 2 16 -1 19 -3 4 -6 -2 -5 -13z"/>
<path d="M3075 5250 c3 -5 8 -10 11 -10 2 0 4 5 4 10 0 6 -5 10 -11 10 -5 0
-7 -4 -4 -10z"/>
<path d="M4686 5034 c-11 -28 -7 -44 9 -38 8 4 15 17 15 30 0 27 -15 32 -24 8z"/>
<path d="M649 4955 c-14 -21 -20 -73 -10 -80 6 -3 14 0 17 8 7 20 1 85 -7 72z"/>
<path d="M0 4040 c0 -15 5 -20 18 -18 9 2 17 10 17 18 0 8 -8 16 -17 18 -13 2
-18 -3 -18 -18z"/>
<path d="M4750 3983 c-25 -2 -58 -10 -75 -17 -16 -8 -42 -19 -57 -25 -16 -6
-28 -17 -28 -25 0 -7 -7 -16 -15 -19 -8 -4 -24 -25 -36 -49 -12 -24 -26 -46
-31 -49 -4 -3 -22 -32 -39 -64 -23 -44 -32 -78 -38 -144 -4 -48 -13 -96 -19
-107 -14 -27 -17 -248 -4 -291 6 -18 18 -43 27 -55 l17 -23 -7 24 c-4 13 -7
55 -6 93 1 60 5 75 27 102 15 17 35 34 45 38 11 4 19 13 19 20 0 7 12 21 28
31 15 9 43 27 62 39 19 12 42 30 52 40 10 10 24 18 32 18 8 0 21 6 28 13 7 7
54 26 103 42 82 27 102 30 230 29 l140 0 87 -42 c48 -23 102 -45 120 -49 18
-3 38 -10 44 -15 19 -14 18 -242 -1 -313 -8 -33 -15 -74 -15 -91 0 -18 -6 -39
-14 -46 -7 -8 -23 -33 -35 -55 -11 -23 -26 -44 -33 -47 -7 -3 1 -4 17 -1 36 7
55 30 55 66 0 15 6 29 13 32 7 3 21 32 30 66 22 79 24 349 2 431 -16 64 -46
149 -60 170 -6 8 -17 29 -25 46 -8 17 -43 54 -77 82 -34 28 -64 60 -68 71 -3
12 -25 27 -53 37 -26 10 -53 22 -61 28 -14 11 -290 18 -381 9z"/>
<path d="M613 3560 c0 -25 2 -35 4 -22 2 12 2 32 0 45 -2 12 -4 2 -4 -23z"/>
<path d="M3 3480 c0 -25 2 -35 4 -22 2 12 2 32 0 45 -2 12 -4 2 -4 -23z"/>
<path d="M578 3480 c2 -22 8 -40 13 -40 5 0 9 18 9 40 0 26 -5 40 -13 40 -9 0
-11 -12 -9 -40z"/>
<path d="M0 3370 c0 -5 5 -10 11 -10 5 0 7 5 4 10 -3 6 -8 10 -11 10 -2 0 -4
-4 -4 -10z"/>
<path d="M654 3206 c-8 -22 3 -33 18 -18 9 9 9 15 0 24 -9 9 -13 7 -18 -6z"/>
<path d="M4440 3076 c0 -29 13 -76 21 -76 5 0 9 20 9 45 0 33 -4 45 -15 45 -8
0 -15 -6 -15 -14z"/>
<path d="M4500 2921 c0 -11 4 -21 9 -21 18 0 21 18 6 30 -13 10 -15 9 -15 -9z"/>
<path d="M5275 2920 c-8 -13 5 -13 25 0 13 8 13 10 -2 10 -9 0 -20 -4 -23 -10z"/>
<path d="M5167 2883 c-4 -3 -28 -11 -54 -18 -41 -10 -48 -16 -48 -36 0 -23 3
-24 60 -21 33 2 64 8 70 13 5 5 17 9 26 9 23 0 32 15 24 40 -5 15 -15 20 -39
20 -18 0 -36 -3 -39 -7z"/>
<path d="M6270 2869 c0 -5 5 -7 10 -4 6 3 10 8 10 11 0 2 -4 4 -10 4 -5 0 -10
-5 -10 -11z"/>
<path d="M4705 2820 c11 -5 36 -8 55 -8 32 0 33 1 10 8 -14 4 -38 8 -55 8 -25
1 -27 -1 -10 -8z"/>
<path d="M4968 2823 c7 -3 16 -2 19 1 4 3 -2 6 -13 5 -11 0 -14 -3 -6 -6z"/>
<path d="M6100 2785 c0 -8 9 -15 20 -15 11 0 20 7 20 15 0 8 -9 15 -20 15 -11
0 -20 -7 -20 -15z"/>
<path d="M6168 2583 c7 -3 16 -2 19 1 4 3 -2 6 -13 5 -11 0 -14 -3 -6 -6z"/>
<path d="M5960 2553 c-22 -9 -36 -26 -44 -51 -6 -19 -4 -22 21 -22 16 0 33 4
39 9 5 6 56 13 114 18 58 4 92 9 77 11 -19 2 -27 8 -25 20 3 15 -9 17 -82 19
-47 1 -92 -1 -100 -4z"/>
<path d="M4654 2525 c-33 -28 -22 -32 25 -9 17 8 29 20 26 25 -9 14 -20 11
-51 -16z"/>
<path d="M3880 2513 c0 -5 5 -15 10 -23 8 -13 13 -12 32 8 l22 22 -32 0 c-17
0 -32 -3 -32 -7z"/>
<path d="M5628 2393 c7 -3 16 -2 19 1 4 3 -2 6 -13 5 -11 0 -14 -3 -6 -6z"/>
<path d="M5578 2363 c7 -3 16 -2 19 1 4 3 -2 6 -13 5 -11 0 -14 -3 -6 -6z"/>
<path d="M3025 2350 c-3 -5 -1 -10 4 -10 6 0 11 5 11 10 0 6 -2 10 -4 10 -3 0
-8 -4 -11 -10z"/>
<path d="M3181 2256 c-9 -10 -6 -15 11 -19 22 -6 57 7 42 15 -26 14 -44 15
-53 4z"/>
<path d="M3735 2249 c-4 -11 -4 -23 0 -27 7 -7 25 17 25 36 0 20 -18 14 -25
-9z"/>
<path d="M6135 2263 c-62 -9 -48 -23 23 -23 41 0 72 4 72 10 0 6 -9 10 -19 10
-11 0 -25 2 -33 3 -7 2 -26 2 -43 0z"/>
<path d="M3268 2210 c36 -22 42 -24 42 -12 0 10 -44 32 -63 32 -7 0 3 -9 21
-20z"/>
<path d="M5986 2221 c-4 -5 12 -7 36 -4 57 8 61 13 10 13 -22 0 -43 -4 -46 -9z"/>
<path d="M5920 2200 c0 -5 9 -10 20 -10 11 0 20 5 20 10 0 6 -9 10 -20 10 -11
0 -20 -4 -20 -10z"/>
<path d="M3410 2110 c0 -5 7 -10 16 -10 8 0 12 5 9 10 -3 6 -10 10 -16 10 -5
0 -9 -4 -9 -10z"/>
<path d="M6874 2104 c3 -9 6 -29 6 -45 0 -18 4 -28 10 -24 6 3 10 24 10 46 0
29 -4 39 -16 39 -11 0 -14 -5 -10 -16z"/>
<path d="M6754 1965 c-18 -14 -16 -15 25 -13 25 2 46 9 49 16 5 17 -50 16 -74
-3z"/>
<path d="M4686 1834 c-9 -8 -16 -22 -16 -30 0 -8 -16 -30 -35 -48 -19 -19 -35
-37 -35 -40 0 -30 100 68 112 110 7 28 -3 31 -26 8z"/>
<path d="M5797 1833 c-13 -12 -7 -24 16 -32 22 -9 37 1 37 27 0 12 -42 17 -53
5z"/>
<path d="M5640 1725 c0 -8 5 -15 10 -15 6 0 10 7 10 15 0 8 -4 15 -10 15 -5 0
-10 -7 -10 -15z"/>
<path d="M5831 1724 c0 -11 3 -14 6 -6 3 7 2 16 -1 19 -3 4 -6 -2 -5 -13z"/>
<path d="M5831 1684 c0 -11 3 -14 6 -6 3 7 2 16 -1 19 -3 4 -6 -2 -5 -13z"/>
<path d="M4546 1646 c-14 -24 -32 -46 -41 -50 -8 -3 -15 -12 -15 -21 0 -8 -6
-15 -13 -15 -7 0 -24 -12 -37 -27 -14 -16 -51 -50 -83 -78 -31 -27 -57 -55
-57 -62 0 -7 -11 -15 -25 -19 -23 -6 -76 -64 -59 -64 21 0 74 25 74 35 0 7 11
18 25 25 14 7 25 17 25 22 0 13 39 48 54 48 16 0 96 89 96 107 0 7 6 13 14 13
15 0 56 62 56 85 0 7 7 15 15 19 16 6 21 26 6 26 -5 0 -21 -20 -35 -44z"/>
<path d="M4165 1296 c-18 -13 -17 -13 6 -11 39 4 40 5 34 15 -8 13 -18 13 -40
-4z"/>
<path d="M4070 1250 c0 -5 12 -10 26 -10 14 0 23 4 19 10 -3 6 -15 10 -26 10
-10 0 -19 -4 -19 -10z"/>
<path d="M5793 1208 c-6 -15 -25 -27 -54 -34 -41 -11 -36 -12 63 -10 58 0 104
4 101 9 -2 4 -12 7 -21 7 -9 0 -30 11 -46 25 -16 14 -30 25 -31 25 -1 0 -6
-10 -12 -22z"/>
<path d="M5165 1178 c-11 -28 -1 -53 23 -56 23 -3 30 12 11 23 -6 4 -14 17
-19 29 -7 18 -9 19 -15 4z"/>
<path d="M5498 1160 c-26 -3 -51 -9 -55 -14 -9 -9 229 3 239 13 9 8 -124 9
-184 1z"/>
<path d="M5941 1156 c12 -10 59 -15 59 -6 0 5 -14 10 -32 10 -17 0 -29 -2 -27
-4z"/>
<path d="M5995 1030 c-18 -20 -16 -38 3 -26 8 5 24 46 18 46 -2 0 -11 -9 -21
-20z"/>
<path d="M5420 820 c0 -5 9 -10 19 -10 11 0 23 5 26 10 4 6 -5 10 -19 10 -14
0 -26 -4 -26 -10z"/>
<path d="M5098 673 c6 -2 18 -2 25 0 6 3 1 5 -13 5 -14 0 -19 -2 -12 -5z"/>
<path d="M4970 630 c0 -5 4 -10 9 -10 6 0 13 5 16 10 3 6 -1 10 -9 10 -9 0
-16 -4 -16 -10z"/>
<path d="M4215 591 c3 -6 22 -11 42 -11 44 0 41 5 -10 14 -27 5 -37 4 -32 -3z"/>
<path d="M4844 585 c-19 -14 -19 -14 1 -15 30 0 65 11 65 21 0 14 -44 10 -66
-6z"/>
<path d="M4315 580 c-4 -6 5 -10 20 -10 15 0 24 4 20 10 -3 6 -12 10 -20 10
-8 0 -17 -4 -20 -10z"/>
<path d="M4526 541 c-9 -13 20 -21 79 -21 57 0 81 14 42 24 -34 9 -115 7 -121
-3z"/>
</g>
</svg>
